<?xml version="1.0" encoding="utf-8"?>
<!-- Generator: Adobe Illustrator 21.0.2, SVG Export Plug-In . SVG Version: 6.00 Build 0)  -->
<svg version="1.1" id="Layer_1" xmlns="http://www.w3.org/2000/svg" xmlns:xlink="http://www.w3.org/1999/xlink" x="0px" y="0px"
	 viewBox="0 0 797 161" style="enable-background:new 0 0 797 161;" xml:space="preserve">
<style type="text/css">
	.st0{fill:#FFFFFF;}
	.st1{clip-path:url(#SVGID_2_);}
	.st2{fill:#F15A24;}
</style>
<g>
	<g>
		<path class="st0" d="M201.4,46.8c8.1,0,14.8,3,19.2,7.5l-8.9,12c-3.2-2.6-6.1-3.8-9.1-3.8c-9.4,0-15.4,7.3-15.4,18.7
			c0,11.4,6.2,18.7,14.7,18.7c4.8,0,8.6-2.3,11.8-4.8l7.8,12.3c-6.4,5.6-14.7,8.2-21.8,8.2c-18.3,0-32.4-12.6-32.4-34.4
			C167.3,59.3,183.3,46.8,201.4,46.8z"/>
		<path class="st0" d="M258.9,71.8c-0.4-5.8-3.3-9.5-10.3-9.5c-5.6,0-11.1,2.3-17.5,6l-6.9-12.8c8.3-5,17.7-8.6,28.1-8.6
			c16.8,0,26.1,9.5,26.1,29.7V114h-15.9l-1.5-6.8h-0.4c-5.6,4.9-11.8,8.3-19.2,8.3c-11.9,0-19.5-8.7-19.5-19.9
			C222,82,233,74.4,258.9,71.8z M248.1,100.5c4.5,0,7.4-2.1,10.9-5.6V83.4c-13.9,1.9-18.4,5.8-18.4,10.9
			C240.5,98.5,243.4,100.5,248.1,100.5z"/>
		<path class="st0" d="M280.8,48.4h19.6l8.5,31c1.7,6.5,3.4,13.4,5.2,20.3h0.5c1.6-6.9,3.3-13.8,5-20.3l8.6-31h18.7L325.4,114h-22.5
			L280.8,48.4z"/>
		<path class="st0" d="M375.8,46.8c18.7,0,27.9,13.6,27.9,31.5c0,3.4-0.4,6.6-0.8,8.2h-39.3c1.7,9.9,8.3,14.3,17.1,14.3
			c4.9,0,9.4-1.5,14.2-4.4l6.5,11.8c-6.8,4.6-15.5,7.4-23.3,7.4c-18.8,0-33.2-12.7-33.2-34.4C344.8,59.9,360.1,46.8,375.8,46.8z
			 M387.2,74.4c0-7.5-3.2-12.8-11-12.8c-6.1,0-11.4,4.1-12.7,12.8H387.2z"/>
		<path class="st0" d="M410,48.4h15.9l1.3,11.5h0.5c4.8-8.9,11.9-13.1,18.7-13.1c3.7,0,6,0.5,7.8,1.3L451,64.9
			c-2.4-0.7-4.4-1.1-7.2-1.1c-4.9,0-11,3.2-14.4,12V114H410V48.4z"/>
		<path class="st0" d="M455.4,48.4h15.9l1.3,8.3h0.5c5.6-5.3,12.2-9.9,21.1-9.9c14.3,0,20.4,10.1,20.4,26.5V114h-19.5V75.8
			c0-9.5-2.5-12.4-8.1-12.4c-4.9,0-7.9,2.3-12.2,6.4V114h-19.5V48.4z"/>
		<path class="st0" d="M558.4,71.8c-0.4-5.8-3.3-9.5-10.3-9.5c-5.6,0-11.1,2.3-17.5,6l-6.9-12.8c8.3-5,17.7-8.6,28.1-8.6
			c16.8,0,26.1,9.5,26.1,29.7V114H562l-1.5-6.8h-0.4c-5.6,4.9-11.8,8.3-19.2,8.3c-11.9,0-19.5-8.7-19.5-19.9
			C521.5,82,532.5,74.4,558.4,71.8z M547.6,100.5c4.5,0,7.4-2.1,10.9-5.6V83.4c-13.9,1.9-18.4,5.8-18.4,10.9
			C540,98.5,542.9,100.5,547.6,100.5z"/>
	</g>
	<g>
		<defs>
			<circle id="SVGID_1_" cx="79.1" cy="80" r="75.3"/>
		</defs>
		<clipPath id="SVGID_2_">
			<use xlink:href="#SVGID_1_"  style="overflow:visible;"/>
		</clipPath>
		<g class="st1">
			<path class="st2" d="M48.8,101.5c16.3-35.2,12-58.1-0.5-65.2c0,0,75.7,2.5,60.4,79.5c-2.7,13.1-14.5,31.8,3.8,54.4
				C112.3,170.2,21.2,177.8,48.8,101.5z"/>
			<path class="st2" d="M118.3,166.5c-3.4-4.7-13.9-13.8-3.2-43.7c5.7-15.9,2.9-45.2-2.9-50.2c0,0,48.9,31.1,20.6,71.1
				C116.1,167.4,118.3,166.5,118.3,166.5z"/>
		</g>
		<use xlink:href="#SVGID_1_"  style="overflow:visible;fill:none;stroke:#F15A24;stroke-width:2;stroke-miterlimit:10;"/>
	</g>
	<g>
		<path class="st2" d="M598,21.2h10.9v82.1c0,3.4,1.5,4.8,3,4.8c0.7,0,1.2,0,2.4-0.3l1.5,8.2c-1.5,0.7-3.3,1.1-6.2,1.1
			c-8.2,0-11.5-5.2-11.5-14.6V21.2z"/>
		<path class="st2" d="M660.9,74.7c0-8.2-2.8-16.2-13.2-16.2c-7.5,0-14.2,3.4-19.2,6.9l-4.4-7.5c6-3.8,15-8.3,25.3-8.3
			c15.8,0,22.4,10.5,22.4,26.5v39.5h-9l-0.9-7.7h-0.3c-6.2,5-13.4,9.3-21.3,9.3c-10.9,0-18.9-6.8-18.9-18.3
			C621.3,84.8,633.5,77.8,660.9,74.7z M643.3,108.4c6.2,0,11.4-3,17.6-8.6V81.9C639.3,84.5,632,89.8,632,98
			C632,105.3,636.9,108.4,643.3,108.4z"/>
		<path class="st2" d="M685,21.2h10.9v25.7l-0.3,11.7c5.8-5.2,13-9,20.1-9c16.7,0,25.6,12.8,25.6,32.7c0,22-13.1,34.8-27.8,34.8
			c-6,0-12.7-2.9-18.4-7.9h-0.4l-0.9,6.4H685V21.2z M711.6,108c10.6,0,18.4-9.7,18.4-25.6c0-14.2-4.8-23.7-16.9-23.7
			c-5.4,0-11.1,3-17.2,8.7v33.8C701.5,106.1,707.3,108,711.6,108z"/>
		<path class="st2" d="M749.5,101c5.6,4.5,11.3,7.7,18.9,7.7c8.5,0,12.7-4.5,12.7-10.1c0-6.6-7.7-9.5-14.7-12.2
			c-9.1-3.3-19.2-7.7-19.2-18.5c0-10.3,8.2-18.3,22.1-18.3c8.1,0,15.1,3.3,20,7.3l-5.2,6.9c-4.4-3.3-9-5.7-14.7-5.7
			c-8.1,0-11.8,4.4-11.8,9.3c0,6,7,8.3,14.3,11.1c9.3,3.4,19.6,7.3,19.6,19.5c0,10.5-8.3,19.2-23.6,19.2c-9.1,0-17.9-3.8-24-8.9
			L749.5,101z"/>
	</g>
</g>
</svg>
